<svg width="1058" height="1432" fill="none" xmlns="http://www.w3.org/2000/svg"><g clip-path="url(#clip0)"><g filter="url(#filter0_f)"><rect x="233.269" y="137.555" width="589.842" height="1156.35" rx="99.819" stroke="#3754AA" stroke-opacity=".15" stroke-width="38.891"/></g><rect x="239.752" y="378.677" width="41.483" height="103.708" rx="7.778" fill="#fff"/><rect x="239.751" y="500.534" width="41.483" height="103.708" rx="7.778" fill="#fff"/><rect x="776" y="439.605" width="41.483" height="103.708" rx="7.778" fill="#fff"/><path fill-rule="evenodd" clip-rule="evenodd" d="M333.088 157c-44.389 0-80.374 35.985-80.374 80.374v956.706c0 44.39 35.985 80.38 80.374 80.38h390.203c44.39 0 80.374-35.99 80.374-80.38V237.374c0-44.389-35.984-80.374-80.374-80.374H333.088zm3.89 32.409c-28.639 0-51.855 23.216-51.855 51.854v948.927c0 28.64 23.216 51.86 51.855 51.86h382.424c28.639 0 51.855-23.22 51.855-51.86V241.263c0-28.638-23.216-51.854-51.855-51.854h-60.604a9.075 9.075 0 00-9.075 9.074v3.889c0 14.32-11.608 25.928-25.927 25.928H432.584c-14.319 0-25.927-11.608-25.927-25.928v-3.889a9.075 9.075 0 00-9.075-9.074h-60.604z" fill="#fff"/><path fill-rule="evenodd" clip-rule="evenodd" d="M334.385 176.445c-34.366 0-62.225 27.859-62.225 62.225v954.12c0 34.36 27.859 62.22 62.225 62.22h387.61c34.366 0 62.225-27.86 62.225-62.22V238.67c0-34.366-27.859-62.225-62.225-62.225h-387.61zm2.593 12.964c-28.639 0-51.855 23.216-51.855 51.854v948.927c0 28.64 23.216 51.86 51.855 51.86h382.424c28.639 0 51.855-23.22 51.855-51.85V241.263c0-28.638-23.216-51.854-51.855-51.854h-60.604a9.075 9.075 0 00-9.075 9.074v3.889c0 14.32-11.608 25.928-25.927 25.928H432.584c-14.319 0-25.927-11.608-25.927-25.928v-3.889a9.075 9.075 0 00-9.075-9.074h-60.604z" fill="url(#paint0_linear)"/></g><defs><linearGradient id="paint0_linear" x1="528.19" y1="176.445" x2="528.19" y2="1255.01" gradientUnits="userSpaceOnUse"><stop stop-color="#F1F7FF"/><stop offset="1" stop-color="#D9E3F5"/></linearGradient><clipPath id="clip0"><path fill="#fff" d="M0 0h1058v1432H0z"/></clipPath><filter id="filter0_f" x="-45.447" y="-141.162" width="1147.27" height="1713.78" filterUnits="userSpaceOnUse" color-interpolation-filters="sRGB"><feFlood flood-opacity="0" result="BackgroundImageFix"/><feBlend in="SourceGraphic" in2="BackgroundImageFix" result="shape"/><feGaussianBlur stdDeviation="129.635" result="effect1_foregroundBlur"/></filter></defs></svg>