<svg width="26" height="26" fill="none" xmlns="http://www.w3.org/2000/svg"><path d="M13 25c6.627 0 12-5.373 12-12S19.627 1 13 1 1 6.373 1 13s5.373 12 12 12z" stroke="#fff" stroke-width="2" stroke-linecap="round" stroke-linejoin="round"/><path d="M8.41 18c0-.756.083-1.41.251-1.962.168-.552.45-1.044.846-1.476.408-.432.966-.84 1.674-1.224a870.99 870.99 0 001.764-.954c.432-.24.732-.444.9-.612.18-.18.27-.384.27-.612 0-.336-.12-.606-.36-.81-.24-.204-.582-.306-1.026-.306-.492 0-.93.126-1.314.378-.384.24-.75.558-1.098.954L8.5 9.252c.264-.276.63-.546 1.098-.81a7.52 7.52 0 013.636-.9c1.284 0 2.274.288 2.97.864.696.564 1.044 1.32 1.044 2.268 0 .54-.108 1.002-.324 1.386-.204.372-.474.69-.81.954-.324.264-.66.504-1.008.72-.576.3-1.08.576-1.512.828-.42.24-.798.522-1.134.846h4.986V18H8.41z" fill="#fff"/></svg>