<svg width="1480" height="1037" fill="none" xmlns="http://www.w3.org/2000/svg"><g clip-path="url(#clip0)"><g filter="url(#filter0_f)"><rect x="154.98" y="133.64" width="1166.04" height="767.52" rx="36.9" stroke="#3754AA" stroke-opacity=".2" stroke-width="29.52"/></g><g filter="url(#filter1_dd)"><mask id="a" maskUnits="userSpaceOnUse" x="163.74" y="142.4" width="1149" height="750" fill="#000"><path fill="#fff" d="M163.74 142.4h1149v750h-1149z"/><path fill-rule="evenodd" clip-rule="evenodd" d="M191.88 148.4c-12.227 0-22.14 9.912-22.14 22.14v693.72c0 12.227 9.913 22.14 22.14 22.14h1092.24c12.23 0 22.14-9.913 22.14-22.14V170.54c0-12.228-9.91-22.14-22.14-22.14H191.88zm1077.48 36.9H206.64v664.2h1062.72V185.3z"/></mask><path fill-rule="evenodd" clip-rule="evenodd" d="M191.88 148.4c-12.227 0-22.14 9.912-22.14 22.14v693.72c0 12.227 9.913 22.14 22.14 22.14h1092.24c12.23 0 22.14-9.913 22.14-22.14V170.54c0-12.228-9.91-22.14-22.14-22.14H191.88zm1077.48 36.9H206.64v664.2h1062.72V185.3z" fill="#fff"/><path d="M206.64 185.3v-5.904h-5.904v5.904h5.904zm1062.72 0h5.9v-5.904h-5.9v5.904zM206.64 849.5h-5.904v5.904h5.904V849.5zm1062.72 0v5.904h5.9V849.5h-5.9zM175.644 170.54c0-8.967 7.269-16.236 16.236-16.236v-11.808c-15.488 0-28.044 12.556-28.044 28.044h11.808zm0 693.72V170.54h-11.808v693.72h11.808zm16.236 16.236c-8.967 0-16.236-7.269-16.236-16.236h-11.808c0 15.488 12.556 28.044 28.044 28.044v-11.808zm1092.24 0H191.88v11.808h1092.24v-11.808zm16.24-16.236c0 8.967-7.27 16.236-16.24 16.236v11.808c15.49 0 28.04-12.556 28.04-28.044h-11.8zm0-693.72v693.72h11.8V170.54h-11.8zm-16.24-16.236c8.97 0 16.24 7.269 16.24 16.236h11.8c0-15.488-12.55-28.044-28.04-28.044v11.808zm-1092.24 0h1092.24v-11.808H191.88v11.808zm14.76 36.9h1062.72v-11.808H206.64v11.808zm5.904 658.296V185.3h-11.808v664.2h11.808zm1056.816-5.904H206.64v11.808h1062.72v-11.808zm-5.9-658.296v664.2h11.8V185.3h-11.8z" fill="url(#paint0_linear)" mask="url(#a)"/></g></g><defs><filter id="filter0_f" x="-7.38" y="-28.72" width="1490.76" height="1092.24" filterUnits="userSpaceOnUse" color-interpolation-filters="sRGB"><feFlood flood-opacity="0" result="BackgroundImageFix"/><feBlend in="SourceGraphic" in2="BackgroundImageFix" result="shape"/><feGaussianBlur stdDeviation="73.8" result="effect1_foregroundBlur"/></filter><filter id="filter1_dd" x="162.36" y="141.02" width="1151.28" height="752.76" filterUnits="userSpaceOnUse" color-interpolation-filters="sRGB"><feFlood flood-opacity="0" result="BackgroundImageFix"/><feColorMatrix in="SourceAlpha" values="0 0 0 0 0 0 0 0 0 0 0 0 0 0 0 0 0 0 127 0"/><feOffset dx="-1.476" dy="-1.476"/><feColorMatrix values="0 0 0 0 1 0 0 0 0 1 0 0 0 0 1 0 0 0 0.6 0"/><feBlend in2="BackgroundImageFix" result="effect1_dropShadow"/><feColorMatrix in="SourceAlpha" values="0 0 0 0 0 0 0 0 0 0 0 0 0 0 0 0 0 0 127 0"/><feOffset dx="1.476" dy="1.476"/><feColorMatrix values="0 0 0 0 1 0 0 0 0 1 0 0 0 0 1 0 0 0 0.2 0"/><feBlend in2="effect1_dropShadow" result="effect2_dropShadow"/><feBlend in="SourceGraphic" in2="effect2_dropShadow" result="shape"/></filter><linearGradient id="paint0_linear" x1="169.74" y1="148.4" x2="1306.26" y2="886.4" gradientUnits="userSpaceOnUse"><stop stop-color="#EDF4FF"/><stop offset="1" stop-color="#D9E4F6"/></linearGradient><clipPath id="clip0"><path fill="#fff" transform="translate(0 .8)" d="M0 0h1480v1036H0z"/></clipPath></defs></svg>