<svg width="72" height="72" fill="none" xmlns="http://www.w3.org/2000/svg"><rect width="72" height="72" rx="36" fill="#39CC76"/><path d="M48.667 21H23.333c-1.749 0-3.166 1.492-3.166 3.333V41c0 1.84 1.417 3.333 3.166 3.333h25.334c1.748 0 3.166-1.492 3.166-3.333V24.333c0-1.84-1.417-3.333-3.166-3.333zm-31 24.167h36.666" stroke="#fff" stroke-width="3" stroke-linecap="round" stroke-linejoin="round"/><path d="M41.556 29.889H30.444a2.222 2.222 0 00-2.222 2.222V49.89c0 1.227.995 2.222 2.222 2.222h11.112a2.222 2.222 0 002.222-2.222V32.11a2.222 2.222 0 00-2.222-2.222z" fill="#39CC76" stroke="#fff" stroke-width="3" stroke-linecap="round" stroke-linejoin="round"/><path d="M36 47.667h.011" stroke="#fff" stroke-width="3" stroke-linecap="round" stroke-linejoin="round"/></svg>