<svg width="2400" height="2400" fill="none" xmlns="http://www.w3.org/2000/svg"><g clip-path="url(#clip0)"><g filter="url(#filter0_f)"><rect x="208" y="600" width="1984" height="1376" rx="50" stroke="#3754AA" stroke-opacity=".2" stroke-width="40"/></g><path d="M904 2221h595c0 11.05-8.95 20-20 20H924c-11.046 0-20-8.95-20-20z" fill="#fff"/><path d="M1011 1956h377s1.5 161.5 26.5 202 81.5 63 81.5 63H904s53.789-23.5 74-58.5 33-206.5 33-206.5z" fill="url(#paint0_linear)"/><path fill-rule="evenodd" clip-rule="evenodd" d="M288 620c-33.137 0-60 26.863-60 60v1216c0 33.14 26.863 60 60 60h1824c33.14 0 60-26.86 60-60V680c0-33.137-26.86-60-60-60H288zm1810 76H302v1008h1796V696z" fill="#fff"/><path fill-rule="evenodd" clip-rule="evenodd" d="M288 620c-33.137 0-60 26.863-60 60v1100h1944V680c0-33.137-26.86-60-60-60H288zm1810 76H302v1008h1796V696z" fill="url(#paint1_linear)"/></g><defs><linearGradient id="paint0_linear" x1="1200" y1="2221" x2="1200" y2="1956" gradientUnits="userSpaceOnUse"><stop stop-color="#F1F6FF"/><stop offset=".326" stop-color="#fff"/><stop offset=".562" stop-color="#F7FAFF"/><stop offset="1" stop-color="#D9E4F6"/></linearGradient><linearGradient id="paint1_linear" x1="1200" y1="1780" x2="1200" y2="620" gradientUnits="userSpaceOnUse"><stop stop-color="#EDF5FF"/><stop offset=".438" stop-color="#E2EFFF"/><stop offset=".661" stop-color="#fff"/></linearGradient><clipPath id="clip0"><path fill="#fff" d="M0 0h2400v2400H0z"/></clipPath><filter id="filter0_f" x="-12" y="380" width="2424" height="1816" filterUnits="userSpaceOnUse" color-interpolation-filters="sRGB"><feFlood flood-opacity="0" result="BackgroundImageFix"/><feBlend in="SourceGraphic" in2="BackgroundImageFix" result="shape"/><feGaussianBlur stdDeviation="100" result="effect1_foregroundBlur"/></filter></defs></svg>