<svg width="26" height="26" fill="none" xmlns="http://www.w3.org/2000/svg"><path d="M13 25c6.627 0 12-5.373 12-12S19.627 1 13 1 1 6.373 1 13s5.373 12 12 12z" stroke="#fff" stroke-width="2" stroke-linecap="round" stroke-linejoin="round"/><path d="M17.234 15.408V18H9.458v-2.592h2.556v-4.59c-.144.192-.39.384-.738.576a6.82 6.82 0 01-1.116.504c-.396.132-.75.198-1.062.198V9.432c.204 0 .456-.066.756-.198s.6-.288.9-.468c.312-.192.582-.384.81-.576.24-.192.39-.348.45-.468h2.934v7.686h2.286z" fill="#fff"/></svg>