<svg width="26" height="26" fill="none" xmlns="http://www.w3.org/2000/svg"><path d="M13 25c6.627 0 12-5.373 12-12S19.627 1 13 1 1 6.373 1 13s5.373 12 12 12z" stroke="#fff" stroke-width="2" stroke-linecap="round" stroke-linejoin="round"/><path d="M14.95 13.734a2.87 2.87 0 011.818 1.098c.468.588.702 1.302.702 2.142 0 .744-.198 1.392-.594 1.944-.396.552-.96.978-1.692 1.278-.732.3-1.596.45-2.592.45-1.812 0-3.24-.534-4.284-1.602l1.548-2.052c.324.336.696.594 1.116.774.42.168.912.252 1.476.252 1.356 0 2.034-.498 2.034-1.494 0-.54-.204-.948-.612-1.224-.408-.276-1.038-.414-1.89-.414h-.54v-2.07h.594c.66 0 1.182-.138 1.566-.414.384-.288.576-.654.576-1.098 0-.396-.138-.696-.414-.9-.276-.204-.642-.306-1.098-.306-1.008 0-1.794.45-2.358 1.35L8.488 9.36c.264-.336.624-.636 1.08-.9a6.218 6.218 0 011.584-.612 7.692 7.692 0 011.836-.216c.852 0 1.596.132 2.232.396.648.264 1.146.636 1.494 1.116.36.468.54 1.026.54 1.674 0 .468-.096.912-.288 1.332a2.994 2.994 0 01-.81 1.044c-.348.276-.75.456-1.206.54z" fill="#fff"/></svg>